# 3ds Max Wavefront OBJ Exporter v0.97b - (c)2007 guruware
# File Created: 15.05.2017 01:39:39

mtllib thechoosenbat.mtl

#
# object Torus001
#

v  70.6257 21.0963 9.1389
v  64.1812 35.7351 10.5025
v  45.2988 35.6118 10.5896
v  38.7299 23.8569 9.2388
v  64.1584 35.8103 7.9090
v  47.4358 35.6870 7.9961
v  45.6606 39.6743 9.9407
v  45.5114 40.6846 9.5001
v  45.6438 39.7496 9.0675
v  86.1076 42.3067 9.5001
v  83.0895 44.4046 10.2987
v  77.9941 41.1504 10.5896
v  83.2889 34.2728 9.2388
v  83.0667 44.8829 8.9622
v  77.9713 41.2257 7.9961
# 15 vertices

vn 0.3334 -0.9428 -0.0026
vn -0.1074 0.5999 0.7928
vn -0.0387 0.2503 0.9674
vn -0.7723 -0.6352 -0.0073
vn -0.1251 0.6235 -0.7717
vn 0.0272 0.6051 -0.7957
vn 0.0532 0.2205 0.9739
vn -0.9792 0.1995 -0.0363
vn 0.1040 -0.4084 0.9069
vn 0.9077 -0.3919 -0.1496
vn -0.2790 0.4099 0.8684
vn -0.2535 0.5456 0.7988
vn 0.8027 -0.5963 0.0010
vn -0.3121 0.5992 -0.7373
vn -0.2221 0.5980 -0.7701
# 15 vertex normals

vt 0.0000 0.0000 0.0000
vt 0.3333 0.0000 0.0000
vt 0.3333 0.1000 0.0000
vt 0.0000 0.1000 0.0000
vt 0.6667 0.0000 0.0000
vt 0.6667 0.1000 0.0000
vt 1.0000 0.0000 0.0000
vt 1.0000 0.1000 0.0000
vt 0.3333 0.2000 0.0000
vt 0.0000 0.2000 0.0000
vt 0.6667 0.2000 0.0000
vt 1.0000 0.2000 0.0000
vt 0.0000 0.8000 0.0000
vt 0.3333 0.8000 0.0000
vt 0.3333 0.9000 0.0000
vt 0.0000 0.9000 0.0000
vt 0.6667 0.8000 0.0000
vt 0.6667 0.9000 0.0000
vt 1.0000 0.8000 0.0000
vt 1.0000 0.9000 0.0000
vt 0.3333 1.0000 0.0000
vt 0.0000 1.0000 0.0000
vt 0.6667 1.0000 0.0000
vt 1.0000 1.0000 0.0000
# 24 texture coords

g Torus001
usemtl wire_000000000
s 1
f 1/1/1 2/2/2 3/3/3 4/4/4 
f 2/2/2 5/5/5 6/6/6 3/3/3 
f 5/5/5 1/7/1 4/8/4 6/6/6 
f 4/4/4 3/3/3 7/9/7 8/10/8 
f 3/3/3 6/6/6 9/11/9 7/9/7 
f 6/6/6 4/8/4 8/12/8 9/11/9 
f 10/13/10 11/14/11 12/15/12 13/16/13 
f 11/14/11 14/17/14 15/18/15 12/15/12 
f 14/17/14 10/19/10 13/20/13 15/18/15 
f 13/16/13 12/15/12 2/21/2 1/22/1 
f 12/15/12 15/18/15 5/23/5 2/21/2 
f 15/18/15 13/20/13 1/24/1 5/23/5 
# 12 polygons

#
# object Torus002
#

v  19.3669 20.3919 10.0987
v  19.8527 35.6005 8.7365
v  34.8875 34.8258 8.6770
v  43.2142 23.5106 9.2602
v  19.8620 35.6758 11.3301
v  37.0709 34.9011 11.2705
v  36.3951 40.7313 8.8929
v  36.4660 40.6004 9.7928
v  36.4043 40.8066 9.9143
v  -2.2181 42.3067 9.6976
v  0.0144 45.4005 9.1127
v  3.7763 40.4678 8.6257
v  2.0952 33.3583 9.9716
v  0.0237 45.4758 9.8597
v  3.7856 40.5431 11.2192
# 15 vertices

vn -0.1621 -0.9867 0.0107
vn 0.0930 0.6177 -0.7809
vn -0.1836 0.4911 -0.8515
vn 0.7420 -0.6688 -0.0457
vn 0.1200 0.6382 0.7605
vn 0.1646 0.2533 0.9533
vn -0.2373 0.7896 -0.5659
vn 0.9517 0.2538 0.1726
vn -0.8070 0.4034 0.4313
vn -0.9494 -0.3011 0.0889
vn 0.5603 0.4772 -0.6770
vn 0.2531 0.4376 -0.8628
vn -0.7029 -0.7112 -0.0081
vn 0.5930 0.5256 0.6100
vn 0.1332 0.5070 0.8516
# 15 vertex normals

vt 0.0000 0.0000 0.0000
vt 0.3333 0.0000 0.0000
vt 0.3333 0.1000 0.0000
vt 0.0000 0.1000 0.0000
vt 0.6667 0.0000 0.0000
vt 0.6667 0.1000 0.0000
vt 1.0000 0.0000 0.0000
vt 1.0000 0.1000 0.0000
vt 0.3333 0.2000 0.0000
vt 0.0000 0.2000 0.0000
vt 0.6667 0.2000 0.0000
vt 1.0000 0.2000 0.0000
vt 0.0000 0.8000 0.0000
vt 0.3333 0.8000 0.0000
vt 0.3333 0.9000 0.0000
vt 0.0000 0.9000 0.0000
vt 0.6667 0.8000 0.0000
vt 0.6667 0.9000 0.0000
vt 1.0000 0.8000 0.0000
vt 1.0000 0.9000 0.0000
vt 0.3333 1.0000 0.0000
vt 0.0000 1.0000 0.0000
vt 0.6667 1.0000 0.0000
vt 1.0000 1.0000 0.0000
# 24 texture coords

g Torus002
usemtl wire_000000000
s 1
f 16/25/16 17/26/17 18/27/18 19/28/19 
f 17/26/17 20/29/20 21/30/21 18/27/18 
f 20/29/20 16/31/16 19/32/19 21/30/21 
f 19/28/19 18/27/18 22/33/22 23/34/23 
f 18/27/18 21/30/21 24/35/24 22/33/22 
f 21/30/21 19/32/19 23/36/23 24/35/24 
f 25/37/25 26/38/26 27/39/27 28/40/28 
f 26/38/26 29/41/29 30/42/30 27/39/27 
f 29/41/29 25/43/25 28/44/28 30/42/30 
f 28/40/28 27/39/27 17/45/17 16/46/16 
f 27/39/27 30/42/30 20/47/20 17/45/17 
f 30/42/30 28/44/28 16/48/16 20/47/20 
# 12 polygons

#
# object Torus003
#

v  82.1179 44.2920 9.5001
v  83.9317 40.2497 10.2211
v  94.1139 46.0120 10.5896
v  93.0840 51.6534 9.2388
v  83.9020 40.1758 9.1933
v  94.0842 45.9380 7.9961
v  110.4681 51.7650 10.5025
v  111.3182 51.7583 9.1389
v  110.4384 51.6911 7.9090
# 9 vertices

vn -0.6424 0.7625 -0.0770
vn 0.3176 -0.5992 0.7349
vn 0.2357 -0.5301 0.8145
vn -0.3798 0.9246 -0.0287
vn 0.3286 -0.6401 -0.6944
vn 0.2150 -0.5434 -0.8115
vn 0.5389 0.7452 0.3927
vn -0.1557 0.9843 -0.0834
vn -0.2569 0.7397 0.6220
# 9 vertex normals

vt 0.0000 0.8000 0.0000
vt 0.3333 0.8000 0.0000
vt 0.3333 0.9000 0.0000
vt 0.0000 0.9000 0.0000
vt 0.6667 0.8000 0.0000
vt 0.6667 0.9000 0.0000
vt 1.0000 0.8000 0.0000
vt 1.0000 0.9000 0.0000
vt 0.3333 1.0000 0.0000
vt 0.0000 1.0000 0.0000
vt 0.6667 1.0000 0.0000
vt 1.0000 1.0000 0.0000
# 12 texture coords

g Torus003
usemtl wire_000000000
s 1
f 31/49/31 32/50/32 33/51/33 34/52/34 
f 32/50/32 35/53/35 36/54/36 33/51/33 
f 35/53/35 31/55/31 34/56/34 36/54/36 
f 34/52/34 33/51/33 37/57/37 38/58/38 
f 33/51/33 36/54/36 39/59/39 37/57/37 
f 36/54/36 34/56/34 38/60/38 39/59/39 
# 6 polygons

#
# object Torus004
#

v  -33.9681 52.1276 9.1389
v  -32.5313 51.0492 10.5025
v  -15.6509 43.6778 10.5896
v  -14.9224 51.2654 9.2388
v  -32.4811 52.1479 7.9090
v  -15.6007 44.7765 7.9961
v  -2.7099 40.8761 9.6662
v  -0.0847 45.3861 9.5001
v  -2.6596 40.8059 9.3991
# 9 vertices

vn 0.1813 0.8893 0.4198
vn 0.3971 0.9108 0.1127
vn -0.2453 -0.7403 0.6259
vn 0.3261 0.9450 0.0236
vn -0.2674 0.8292 -0.4908
vn -0.1464 -0.4700 -0.8704
vn -0.1089 -0.5827 0.8053
vn 0.8098 0.5841 -0.0557
vn -0.0533 -0.6724 -0.7383
# 9 vertex normals

vt 0.0000 0.0000 0.0000
vt 0.3333 0.0000 0.0000
vt 0.3333 0.1000 0.0000
vt 0.0000 0.1000 0.0000
vt 0.6667 0.0000 0.0000
vt 0.6667 0.1000 0.0000
vt 1.0000 0.0000 0.0000
vt 1.0000 0.1000 0.0000
vt 0.3333 0.2000 0.0000
vt 0.0000 0.2000 0.0000
vt 0.6667 0.2000 0.0000
vt 1.0000 0.2000 0.0000
# 12 texture coords

g Torus004
usemtl wire_000000000
s 1
f 40/61/40 41/62/41 42/63/42 43/64/43 
f 41/62/41 44/65/44 45/66/45 42/63/42 
f 44/65/44 40/67/40 43/68/43 45/66/45 
f 43/64/43 42/63/42 46/69/46 47/70/47 
f 42/63/42 45/66/45 48/71/48 46/69/46 
f 45/66/45 43/68/43 47/72/47 48/71/48 
# 6 polygons

#
# object Torus005
#

v  82.8987 43.4771 8.9123
v  93.1780 42.8497 9.8687
v  98.0404 45.7130 9.9298
v  97.0044 47.0654 8.9823
v  93.2450 42.8278 8.0496
v  98.1074 45.6911 8.1107
v  110.3652 51.1393 10.0897
v  110.6185 51.5032 9.1657
v  110.4321 52.0476 8.2706
v  93.7273 21.4678 9.1657
v  93.6599 22.2201 10.0897
v  91.1029 36.2390 9.9298
v  81.3416 36.3294 8.9823
v  93.7269 22.1981 8.2706
v  88.4327 35.3026 8.1107
# 15 vertices

vn -0.8102 0.5861 -0.0030
vn 0.4216 -0.3137 0.8508
vn 0.2869 -0.4050 0.8681
vn -0.3421 0.9379 -0.0580
vn 0.4585 -0.2626 -0.8490
vn 0.2947 -0.4230 -0.8569
vn 0.2715 0.9139 -0.3018
vn -0.3621 0.8499 0.3828
vn -0.2224 -0.0589 0.9732
vn -0.8949 -0.4435 0.0505
vn -0.9741 0.2257 0.0129
vn 0.8058 -0.3459 0.4806
vn -0.9918 -0.1266 0.0168
vn 0.0157 -0.4357 -0.9000
vn 0.1611 -0.0388 -0.9862
# 15 vertex normals

vt 0.0000 0.0000 0.0000
vt 0.3333 0.0000 0.0000
vt 0.3333 0.1000 0.0000
vt 0.0000 0.1000 0.0000
vt 0.6667 0.0000 0.0000
vt 0.6667 0.1000 0.0000
vt 1.0000 0.0000 0.0000
vt 1.0000 0.1000 0.0000
vt 0.3333 0.2000 0.0000
vt 0.0000 0.2000 0.0000
vt 0.6667 0.2000 0.0000
vt 1.0000 0.2000 0.0000
vt 0.0000 0.8000 0.0000
vt 0.3333 0.8000 0.0000
vt 0.3333 0.9000 0.0000
vt 0.0000 0.9000 0.0000
vt 0.6667 0.8000 0.0000
vt 0.6667 0.9000 0.0000
vt 1.0000 0.8000 0.0000
vt 1.0000 0.9000 0.0000
vt 0.3333 1.0000 0.0000
vt 0.0000 1.0000 0.0000
vt 0.6667 1.0000 0.0000
vt 1.0000 1.0000 0.0000
# 24 texture coords

g Torus005
usemtl wire_000000000
s 1
f 49/73/49 50/74/50 51/75/51 52/76/52 
f 50/74/50 53/77/53 54/78/54 51/75/51 
f 53/77/53 49/79/49 52/80/52 54/78/54 
f 52/76/52 51/75/51 55/81/55 56/82/56 
f 51/75/51 54/78/54 57/83/57 55/81/55 
f 54/78/54 52/80/52 56/84/56 57/83/57 
f 58/85/58 59/86/59 60/87/60 61/88/61 
f 59/86/59 62/89/62 63/90/63 60/87/60 
f 62/89/62 58/91/58 61/92/61 63/90/63 
f 61/88/61 60/87/60 50/93/50 49/94/49 
f 60/87/60 63/90/63 53/95/53 50/93/50 
f 63/90/63 61/92/61 49/96/49 53/95/53 
# 12 polygons

#
# object Torus006
#

v  -1.1449 42.5441 8.9723
v  -14.0125 41.9649 9.9287
v  -11.9099 35.3349 9.9898
v  -0.3162 34.9424 9.0423
v  -14.9991 41.9447 8.1096
v  -11.9887 35.3146 8.1707
v  -15.8390 24.4564 10.1497
v  -14.2899 25.2983 9.2256
v  -15.9177 24.4361 8.3306
v  -33.1437 52.3278 9.2256
v  -32.9329 51.6959 10.1497
v  -20.7111 48.7009 9.9898
v  -19.4393 47.9251 9.0423
v  -33.0117 51.6757 8.3306
v  -20.7898 48.6807 8.1707
# 15 vertices

vn 0.8671 0.4981 -0.0102
vn -0.3799 -0.1670 0.9098
vn -0.5617 0.0180 0.8272
vn 0.9641 -0.2655 -0.0077
vn -0.6263 -0.4601 -0.6293
vn -0.5850 -0.0355 -0.8102
vn -0.8321 0.1253 0.5403
vn 0.6364 -0.6270 -0.4492
vn -0.8108 0.2853 -0.5111
vn 0.2731 0.9607 -0.0488
vn 0.0141 0.0041 0.9999
vn -0.6908 0.1978 -0.6954
vn 0.4270 0.8227 0.3752
vn 0.1059 0.0032 -0.9944
vn -0.7101 0.1507 0.6878
# 15 vertex normals

vt 0.0000 0.0000 0.0000
vt 0.3333 0.0000 0.0000
vt 0.3333 0.1000 0.0000
vt 0.0000 0.1000 0.0000
vt 0.6667 0.0000 0.0000
vt 0.6667 0.1000 0.0000
vt 1.0000 0.0000 0.0000
vt 1.0000 0.1000 0.0000
vt 0.3333 0.2000 0.0000
vt 0.0000 0.2000 0.0000
vt 0.6667 0.2000 0.0000
vt 1.0000 0.2000 0.0000
vt 0.0000 0.8000 0.0000
vt 0.3333 0.8000 0.0000
vt 0.3333 0.9000 0.0000
vt 0.0000 0.9000 0.0000
vt 0.6667 0.8000 0.0000
vt 0.6667 0.9000 0.0000
vt 1.0000 0.8000 0.0000
vt 1.0000 0.9000 0.0000
vt 0.3333 1.0000 0.0000
vt 0.0000 1.0000 0.0000
vt 0.6667 1.0000 0.0000
vt 1.0000 1.0000 0.0000
# 24 texture coords

g Torus006
usemtl wire_000000000
s 1
f 64/97/64 65/98/65 66/99/66 67/100/67 
f 65/98/65 68/101/68 69/102/69 66/99/66 
f 68/101/68 64/103/64 67/104/67 69/102/69 
f 67/100/67 66/99/66 70/105/70 71/106/71 
f 66/99/66 69/102/69 72/107/72 70/105/70 
f 69/102/69 67/104/67 71/108/71 72/107/72 
f 73/109/73 74/110/74 75/111/75 76/112/76 
f 74/110/74 77/113/77 78/114/78 75/111/75 
f 77/113/77 73/115/73 76/116/76 78/114/78 
f 76/112/76 75/111/75 65/117/65 64/118/64 
f 75/111/75 78/114/78 68/119/68 65/117/65 
f 78/114/78 76/116/76 64/120/64 68/119/68 
# 12 polygons

#
# object Torus007
#

v  70.9512 32.7747 8.9920
v  75.0316 22.4320 9.6787
v  84.3201 25.3382 9.7225
v  84.1420 34.8173 9.0423
v  75.0854 22.4039 8.3727
v  84.3739 25.3100 8.4165
v  94.1430 21.5092 9.8373
v  93.4513 22.4236 9.1739
v  94.1968 21.4811 8.5313
v  62.0694 9.6892 9.1739
v  63.6761 10.1258 9.8373
v  64.3256 12.6471 9.7225
v  60.7491 16.3725 9.0423
v  63.7158 10.0976 8.5313
v  64.3654 12.6190 8.4165
# 15 vertices

vn -0.7770 0.7045 -0.0068
vn 0.4892 -0.3958 0.8099
vn 0.0363 -0.4038 0.8653
vn 0.1892 0.7576 -0.0054
vn 0.5306 -0.4116 -0.7838
vn 0.1131 -0.4135 -0.8615
vn -0.2234 -0.6619 0.4484
vn 0.7491 0.3771 -0.4526
vn -0.4449 -0.5767 -0.4483
vn -1.1468 0.0691 0.0141
vn 0.2378 -0.0087 0.9781
vn 0.5553 -0.2387 0.8548
vn -1.1365 0.3139 0.0101
vn 0.4075 -0.1808 -0.9235
vn 0.6073 -0.2490 -0.8271
# 15 vertex normals

vt 0.0000 0.0000 0.0000
vt 0.3333 0.0000 0.0000
vt 0.3333 0.1000 0.0000
vt 0.0000 0.1000 0.0000
vt 0.6667 0.0000 0.0000
vt 0.6667 0.1000 0.0000
vt 1.0000 0.0000 0.0000
vt 1.0000 0.1000 0.0000
vt 0.3333 0.2000 0.0000
vt 0.0000 0.2000 0.0000
vt 0.6667 0.2000 0.0000
vt 1.0000 0.2000 0.0000
vt 0.0000 0.8000 0.0000
vt 0.3333 0.8000 0.0000
vt 0.3333 0.9000 0.0000
vt 0.0000 0.9000 0.0000
vt 0.6667 0.8000 0.0000
vt 0.6667 0.9000 0.0000
vt 1.0000 0.8000 0.0000
vt 1.0000 0.9000 0.0000
vt 0.3333 1.0000 0.0000
vt 0.0000 1.0000 0.0000
vt 0.6667 1.0000 0.0000
vt 1.0000 1.0000 0.0000
# 24 texture coords

g Torus007
usemtl wire_000000000
s 1
f 79/121/79 80/122/80 81/123/81 82/124/82 
f 80/122/80 83/125/83 84/126/84 81/123/81 
f 83/125/83 79/127/79 82/128/82 84/126/84 
f 82/124/82 81/123/81 85/129/85 86/130/86 
f 81/123/81 84/126/84 87/131/87 85/129/85 
f 84/126/84 82/128/82 86/132/86 87/131/87 
f 88/133/88 89/134/89 90/135/90 91/136/91 
f 89/134/89 92/137/92 93/138/93 90/135/90 
f 92/137/92 88/139/88 91/140/91 93/138/93 
f 91/136/91 90/135/90 80/141/80 79/142/79 
f 90/135/90 93/138/93 83/143/83 80/141/80 
f 93/138/93 91/140/91 79/144/79 83/143/83 
# 12 polygons

#
# object Torus008
#

v  8.4279 34.5983 8.9920
v  3.7137 22.1635 9.6787
v  -6.0091 26.7351 9.7225
v  -5.8026 36.6410 9.0423
v  3.6740 22.1354 8.3727
v  -6.0714 28.8067 8.4165
v  -14.4127 24.5337 9.8373
v  -15.8746 25.4481 9.1739
v  -14.4751 24.5056 8.5313
v  18.9113 10.2340 9.1739
v  17.8115 10.6706 9.8373
v  15.4793 16.1648 9.7225
v  20.7569 16.3956 9.0423
v  17.2649 10.6425 8.5313
v  15.4396 16.1367 8.4165
# 15 vertices

vn 0.7623 0.7114 -0.0070
vn -0.5949 -0.4458 0.7303
vn -0.1019 -0.6964 0.5099
vn -0.1392 0.7699 -0.0038
vn -0.6380 -0.4542 -0.7009
vn -0.0570 -0.0748 -0.9953
vn 0.0068 -0.4199 0.8488
vn -0.8421 0.4179 -0.0740
vn 0.0545 -0.3553 -0.8885
vn 1.1441 0.0879 -0.1020
vn 0.1189 0.0757 0.9920
vn -0.5087 -0.2391 0.8741
vn 1.1486 0.2608 0.0071
vn -0.4942 -0.2521 -0.8756
vn -0.5565 -0.3014 -0.8322
# 15 vertex normals

vt 0.0000 0.0000 0.0000
vt 0.3333 0.0000 0.0000
vt 0.3333 0.1000 0.0000
vt 0.0000 0.1000 0.0000
vt 0.6667 0.0000 0.0000
vt 0.6667 0.1000 0.0000
vt 1.0000 0.0000 0.0000
vt 1.0000 0.1000 0.0000
vt 0.3333 0.2000 0.0000
vt 0.0000 0.2000 0.0000
vt 0.6667 0.2000 0.0000
vt 1.0000 0.2000 0.0000
vt 0.0000 0.8000 0.0000
vt 0.3333 0.8000 0.0000
vt 0.3333 0.9000 0.0000
vt 0.0000 0.9000 0.0000
vt 0.6667 0.8000 0.0000
vt 0.6667 0.9000 0.0000
vt 1.0000 0.8000 0.0000
vt 1.0000 0.9000 0.0000
vt 0.3333 1.0000 0.0000
vt 0.0000 1.0000 0.0000
vt 0.6667 1.0000 0.0000
vt 1.0000 1.0000 0.0000
# 24 texture coords

g Torus008
usemtl wire_000000000
s 1
f 97/148/97 96/147/96 95/146/95 94/145/94 
f 96/147/96 99/150/99 98/149/98 95/146/95 
f 99/150/99 97/152/97 94/151/94 98/149/98 
f 101/154/101 100/153/100 96/147/96 97/148/97 
f 100/153/100 102/155/102 99/150/99 96/147/96 
f 102/155/102 101/156/101 97/152/97 99/150/99 
f 106/160/106 105/159/105 104/158/104 103/157/103 
f 105/159/105 108/162/108 107/161/107 104/158/104 
f 108/162/108 106/164/106 103/163/103 107/161/107 
f 94/166/94 95/165/95 105/159/105 106/160/106 
f 95/165/95 98/167/98 108/162/108 105/159/105 
f 98/167/98 94/168/94 106/164/106 108/162/108 
# 12 polygons

#
# object Torus009
#

v  42.8140 23.1467 8.9920
v  35.1693 5.5324 9.6787
v  22.8626 12.2963 9.7225
v  29.6016 27.1230 9.0423
v  35.1238 5.5153 8.3727
v  22.8171 12.2792 8.4165
v  18.0489 10.1007 9.8373
v  17.3807 27.1532 9.1739
v  18.0033 10.0836 8.5313
v  40.8091 -2.7084 9.1739
v  39.3664 -1.8774 9.8373
v  38.9388 0.7679 9.7225
v  46.9824 17.6840 9.0423
v  39.3208 -1.8945 8.5313
v  38.8932 0.7509 8.4165
# 15 vertices

vn 0.7682 0.5958 -0.0060
vn -0.5774 -0.2914 0.7896
vn 0.0006 -0.3584 0.8884
vn 0.1915 0.7713 -0.0033
vn -0.5885 -0.3050 -0.7752
vn -0.0346 -0.3627 -0.8852
vn 0.6352 -0.5431 0.4698
vn -0.2084 0.7675 0.0053
vn 0.6053 -0.5511 -0.4830
vn 1.1574 -0.1437 0.0087
vn -0.1547 0.0348 0.9903
vn -0.5952 -0.1461 0.8435
vn 1.1479 0.1838 0.0083
vn -0.3764 -0.1106 -0.9374
vn -0.6741 -0.1311 -0.8039
# 15 vertex normals

vt 0.0000 0.0000 0.0000
vt 0.3333 0.0000 0.0000
vt 0.3333 0.1000 0.0000
vt 0.0000 0.1000 0.0000
vt 0.6667 0.0000 0.0000
vt 0.6667 0.1000 0.0000
vt 1.0000 0.0000 0.0000
vt 1.0000 0.1000 0.0000
vt 0.3333 0.2000 0.0000
vt 0.0000 0.2000 0.0000
vt 0.6667 0.2000 0.0000
vt 1.0000 0.2000 0.0000
vt 0.0000 0.8000 0.0000
vt 0.3333 0.8000 0.0000
vt 0.3333 0.9000 0.0000
vt 0.0000 0.9000 0.0000
vt 0.6667 0.8000 0.0000
vt 0.6667 0.9000 0.0000
vt 1.0000 0.8000 0.0000
vt 1.0000 0.9000 0.0000
vt 0.3333 1.0000 0.0000
vt 0.0000 1.0000 0.0000
vt 0.6667 1.0000 0.0000
vt 1.0000 1.0000 0.0000
# 24 texture coords

g Torus009
usemtl wire_000000000
s 1
f 112/172/112 111/171/111 110/170/110 109/169/109 
f 111/171/111 114/174/114 113/173/113 110/170/110 
f 114/174/114 112/176/112 109/175/109 113/173/113 
f 116/178/116 115/177/115 111/171/111 112/172/112 
f 115/177/115 117/179/117 114/174/114 111/171/111 
f 117/179/117 116/180/116 112/176/112 114/174/114 
f 121/184/121 120/183/120 119/182/119 118/181/118 
f 120/183/120 123/186/123 122/185/122 119/182/119 
f 123/186/123 121/188/121 118/187/118 122/185/122 
f 109/190/109 110/189/110 120/183/120 121/184/121 
f 110/189/110 113/191/113 123/186/123 120/183/120 
f 113/191/113 109/192/109 121/188/121 123/186/123 
# 12 polygons

#
# object Torus010
#

v  38.3257 23.1467 8.9920
v  46.6444 5.5324 9.6787
v  54.9034 11.1083 9.7225
v  49.3124 27.1230 9.0423
v  46.6900 5.5153 8.3727
v  54.9490 11.0912 8.4165
v  63.9329 9.5559 9.8373
v  63.3830 26.6315 9.1739
v  62.7603 9.5388 8.5313
v  40.6338 -2.7083 9.1739
v  42.0765 -1.8774 9.8373
v  42.4963 0.7680 9.7225
v  33.7787 17.6840 9.0423
v  42.1221 -1.8945 8.5313
v  42.5419 0.7509 8.4165
# 15 vertices

vn -0.7937 0.5810 -0.0066
vn 0.6221 -0.2880 0.7670
vn 0.1124 -0.3735 0.8733
vn -0.2024 0.7701 -0.0025
vn 0.6353 -0.2999 -0.7517
vn 0.1361 -0.3803 -0.8661
vn -0.2703 -0.4528 0.7806
vn 0.2272 0.7321 0.2850
vn -0.3740 -0.6820 -0.3642
vn -1.1543 -0.1539 0.0108
vn 0.1562 0.0350 0.9901
vn 0.5851 -0.1570 0.8454
vn -1.1425 0.1982 0.0075
vn 0.3846 -0.1139 -0.9344
vn 0.6651 -0.1414 -0.8065
# 15 vertex normals

vt 0.0000 0.0000 0.0000
vt 0.3333 0.0000 0.0000
vt 0.3333 0.1000 0.0000
vt 0.0000 0.1000 0.0000
vt 0.6667 0.0000 0.0000
vt 0.6667 0.1000 0.0000
vt 1.0000 0.0000 0.0000
vt 1.0000 0.1000 0.0000
vt 0.3333 0.2000 0.0000
vt 0.0000 0.2000 0.0000
vt 0.6667 0.2000 0.0000
vt 1.0000 0.2000 0.0000
vt 0.0000 0.8000 0.0000
vt 0.3333 0.8000 0.0000
vt 0.3333 0.9000 0.0000
vt 0.0000 0.9000 0.0000
vt 0.6667 0.8000 0.0000
vt 0.6667 0.9000 0.0000
vt 1.0000 0.8000 0.0000
vt 1.0000 0.9000 0.0000
vt 0.3333 1.0000 0.0000
vt 0.0000 1.0000 0.0000
vt 0.6667 1.0000 0.0000
vt 1.0000 1.0000 0.0000
# 24 texture coords

g Torus010
usemtl wire_000000000
s 1
f 124/193/124 125/194/125 126/195/126 127/196/127 
f 125/194/125 128/197/128 129/198/129 126/195/126 
f 128/197/128 124/199/124 127/200/127 129/198/129 
f 127/196/127 126/195/126 130/201/130 131/202/131 
f 126/195/126 129/198/129 132/203/132 130/201/130 
f 129/198/129 127/200/127 131/204/131 132/203/132 
f 133/205/133 134/206/134 135/207/135 136/208/136 
f 134/206/134 137/209/137 138/210/138 135/207/135 
f 137/209/137 133/211/133 136/212/136 138/210/138 
f 136/208/136 135/207/135 125/213/125 124/214/124 
f 135/207/135 138/210/138 128/215/128 125/213/125 
f 138/210/138 136/212/136 124/216/124 128/215/128 
# 12 polygons

